<svg width="41" height="37" viewBox="0 0 41 37" fill="none" xmlns="http://www.w3.org/2000/svg">
<path d="M35.3908 25.9047C34.2346 25.9106 33.1087 26.2724 32.1684 26.9402L27.6048 24.2589C27.8201 23.5953 27.9332 22.9033 27.9401 22.2062C27.9348 20.5705 27.3834 18.9826 26.3723 17.6911C25.3612 16.3996 23.9474 15.4772 22.3521 15.0682V10.778C23.5949 10.3418 24.6423 9.48347 25.3093 8.35468C25.9763 7.2259 26.2199 5.89936 25.997 4.60954C25.774 3.31972 25.099 2.14965 24.0912 1.30615C23.0834 0.462638 21.8076 0 20.4894 0C19.1712 0 17.8955 0.462638 16.8876 1.30615C15.8798 2.14965 15.2048 3.31972 14.9819 4.60954C14.759 5.89936 15.0025 7.2259 15.6695 8.35468C16.3365 9.48347 17.3839 10.3418 18.6267 10.778V15.0682C17.0314 15.4772 15.6176 16.3996 14.6065 17.6911C13.5954 18.9826 13.0441 20.5705 13.0387 22.2062C13.0456 22.9033 13.1587 23.5953 13.374 24.2589L8.81045 26.9402C7.87008 26.2724 6.74421 25.9106 5.58802 25.9047C4.48282 25.9047 3.40243 26.23 2.48349 26.8396C1.56454 27.4492 0.848309 28.3156 0.425365 29.3293C0.00242121 30.343 -0.10824 31.4585 0.107375 32.5346C0.32299 33.6108 0.855197 34.5993 1.6367 35.3751C2.41819 36.151 3.41388 36.6793 4.49785 36.8934C5.58182 37.1075 6.70539 36.9976 7.72647 36.5777C8.74754 36.1578 9.62027 35.4468 10.2343 34.5344C10.8483 33.6221 11.176 32.5496 11.176 31.4523C11.1692 30.9515 11.094 30.4538 10.9525 29.973L15.2367 27.4395C16.6327 28.8172 18.521 29.5905 20.4894 29.5905C22.4578 29.5905 24.3462 28.8172 25.7421 27.4395L30.0263 29.973C29.7142 31.0929 29.7642 32.2818 30.1692 33.372C30.5742 34.4621 31.3138 35.3986 32.2836 36.0491C33.2534 36.6996 34.4045 37.0314 35.5744 36.9976C36.7443 36.9638 37.874 36.5662 38.8041 35.8609C39.7342 35.1555 40.4178 34.178 40.7583 33.0663C41.0988 31.9546 41.0791 30.7648 40.702 29.6648C40.3249 28.5648 39.6094 27.6101 38.6564 26.9355C37.7035 26.2608 36.5612 25.9003 35.3908 25.9047ZM5.58802 33.3016C5.21962 33.3016 4.85949 33.1931 4.55318 32.9899C4.24686 32.7867 4.00812 32.4979 3.86714 32.16C3.72616 31.8221 3.68927 31.4503 3.76114 31.0916C3.83301 30.7329 4.01041 30.4034 4.27091 30.1447C4.53141 29.8861 4.86331 29.71 5.22463 29.6386C5.58596 29.5673 5.96048 29.6039 6.30084 29.7439C6.6412 29.8838 6.93211 30.1209 7.13678 30.425C7.34145 30.7291 7.4507 31.0866 7.4507 31.4523C7.4507 31.9428 7.25445 32.4131 6.90513 32.7599C6.55581 33.1067 6.08203 33.3016 5.58802 33.3016ZM20.4894 3.71403C20.8578 3.71403 21.2179 3.82248 21.5243 4.02567C21.8306 4.22887 22.0693 4.51768 22.2103 4.85558C22.3513 5.19348 22.3882 5.5653 22.3163 5.92401C22.2444 6.28272 22.067 6.61222 21.8065 6.87084C21.546 7.12946 21.2141 7.30558 20.8528 7.37693C20.4915 7.44829 20.117 7.41167 19.7766 7.2717C19.4362 7.13174 19.1453 6.89472 18.9407 6.59062C18.736 6.28651 18.6267 5.92899 18.6267 5.56325C18.6267 5.0728 18.823 4.60245 19.1723 4.25565C19.5216 3.90885 19.9954 3.71403 20.4894 3.71403ZM20.4894 25.9047C19.7526 25.9047 19.0323 25.6878 18.4197 25.2814C17.8071 24.875 17.3296 24.2974 17.0476 23.6216C16.7657 22.9458 16.6919 22.2021 16.8356 21.4847C16.9794 20.7673 17.3342 20.1083 17.8552 19.591C18.3762 19.0738 19.04 18.7216 19.7626 18.5789C20.4853 18.4361 21.2343 18.5094 21.915 18.7893C22.5958 19.0692 23.1776 19.5433 23.5869 20.1515C23.9963 20.7597 24.2148 21.4747 24.2148 22.2062C24.2148 23.1871 23.8223 24.1278 23.1236 24.8214C22.425 25.515 21.4774 25.9047 20.4894 25.9047ZM35.3908 33.3016C35.0224 33.3016 34.6623 33.1931 34.356 32.9899C34.0496 32.7867 33.8109 32.4979 33.6699 32.16C33.5289 31.8221 33.492 31.4503 33.5639 31.0916C33.6358 30.7329 33.8132 30.4034 34.0737 30.1447C34.3342 29.8861 34.6661 29.71 35.0274 29.6386C35.3887 29.5673 35.7633 29.6039 36.1036 29.7439C36.444 29.8838 36.7349 30.1209 36.9396 30.425C37.1442 30.7291 37.2535 31.0866 37.2535 31.4523C37.2535 31.9428 37.0572 32.4131 36.7079 32.7599C36.3586 33.1067 35.8848 33.3016 35.3908 33.3016Z" fill="#8E8E8E"/>
</svg>
