<svg width="23" height="23" viewBox="0 0 23 23" fill="none" xmlns="http://www.w3.org/2000/svg">
<path d="M12.0303 15.8183C11.8941 15.9673 11.7017 16.0521 11.4998 16.0521C11.298 16.0521 11.1056 15.9673 10.9694 15.8183L7.13605 11.6256C6.8682 11.3327 6.88855 10.878 7.18152 10.6102C7.47449 10.3423 7.92911 10.3626 8.19697 10.6556L10.7811 13.482V2.875C10.7811 2.47805 11.1029 2.15625 11.4998 2.15625C11.8968 2.15625 12.2186 2.47805 12.2186 2.875V13.482L14.8027 10.6556C15.0706 10.3626 15.5252 10.3423 15.8182 10.6102C16.1112 10.878 16.1315 11.3327 15.8636 11.6256L12.0303 15.8183Z" fill="white"/>
<path d="M3.59375 14.375C3.59375 13.9781 3.27196 13.6562 2.875 13.6562C2.47805 13.6562 2.15625 13.9781 2.15625 14.375V14.4276C2.15623 15.7382 2.15621 16.7946 2.26792 17.6255C2.38389 18.4881 2.632 19.2143 3.20884 19.7911C3.78568 20.368 4.51197 20.6161 5.37457 20.7321C6.20542 20.8437 7.26181 20.8437 8.57242 20.8437H14.4276C15.7382 20.8437 16.7946 20.8437 17.6255 20.7321C18.4881 20.6161 19.2143 20.368 19.7912 19.7911C20.368 19.2143 20.6161 18.4881 20.7321 17.6255C20.8437 16.7946 20.8438 15.7382 20.8438 14.4276V14.375C20.8438 13.9781 20.5219 13.6562 20.125 13.6562C19.7281 13.6562 19.4062 13.9781 19.4062 14.375C19.4062 15.7506 19.4047 16.71 19.3074 17.4339C19.2129 18.1371 19.04 18.5094 18.7747 18.7747C18.5094 19.04 18.1371 19.2129 17.4339 19.3074C16.71 19.4047 15.7506 19.4062 14.375 19.4062H8.625C7.2494 19.4062 6.28999 19.4047 5.56612 19.3074C4.86292 19.2129 4.49053 19.04 4.2253 18.7747C3.96007 18.5094 3.78714 18.1371 3.6926 17.4339C3.59527 16.71 3.59375 15.7506 3.59375 14.375Z" fill="white"/>
</svg>
