<svg width="19" height="19" viewBox="0 0 19 19" fill="none" xmlns="http://www.w3.org/2000/svg">
<path fill-rule="evenodd" clip-rule="evenodd" d="M9.49999 2.1C8.53477 2.1 7.57901 2.29011 6.68726 2.65949C5.79552 3.02886 4.98526 3.57025 4.30275 4.25276C3.62024 4.93528 3.07885 5.74553 2.70947 6.63728C2.3401 7.52902 2.14999 8.48478 2.14999 9.45C2.14999 10.4152 2.3401 11.371 2.70947 12.2627C3.07885 13.1545 3.62024 13.9647 4.30275 14.6472C4.98526 15.3297 5.79552 15.8711 6.68726 16.2405C7.57901 16.6099 8.53477 16.8 9.49999 16.8C11.4493 16.8 13.3188 16.0256 14.6972 14.6472C16.0756 13.2688 16.85 11.3993 16.85 9.45C16.85 7.50066 16.0756 5.63116 14.6972 4.25276C13.3188 2.87437 11.4493 2.1 9.49999 2.1ZM0.0499878 9.45C0.0499878 6.9437 1.04561 4.54006 2.81783 2.76784C4.59005 0.995622 6.99369 0 9.49999 0C12.0063 0 14.4099 0.995622 16.1821 2.76784C17.9544 4.54006 18.95 6.9437 18.95 9.45C18.95 11.9563 17.9544 14.3599 16.1821 16.1322C14.4099 17.9044 12.0063 18.9 9.49999 18.9C6.99369 18.9 4.59005 17.9044 2.81783 16.1322C1.04561 14.3599 0.0499878 11.9563 0.0499878 9.45ZM8.44999 5.25C8.44999 4.97152 8.56061 4.70445 8.75753 4.50754C8.95444 4.31062 9.22151 4.2 9.49999 4.2H9.51049C9.78897 4.2 10.056 4.31062 10.2529 4.50754C10.4499 4.70445 10.5605 4.97152 10.5605 5.25C10.5605 5.52848 10.4499 5.79555 10.2529 5.99246C10.056 6.18937 9.78897 6.3 9.51049 6.3H9.49999C9.22151 6.3 8.95444 6.18937 8.75753 5.99246C8.56061 5.79555 8.44999 5.52848 8.44999 5.25ZM8.46049 13.65C8.46049 13.9285 8.57111 14.1955 8.76803 14.3925C8.96494 14.5894 9.23201 14.7 9.51049 14.7C9.78897 14.7 10.056 14.5894 10.2529 14.3925C10.4499 14.1955 10.5605 13.9285 10.5605 13.65V8.4C10.5605 8.12152 10.4499 7.85445 10.2529 7.65754C10.056 7.46062 9.78897 7.35 9.51049 7.35C9.23201 7.35 8.96494 7.46062 8.76803 7.65754C8.57111 7.85445 8.46049 8.12152 8.46049 8.4V13.65Z" fill="#8E8E8E"/>
</svg>
