<svg width="48" height="30" viewBox="0 0 48 30" fill="none" xmlns="http://www.w3.org/2000/svg">
<path d="M0 14.9742C0.064 15.1021 0.144 15.2781 0.24 15.5021C0.336 15.7261 0.576 16.19 0.96 16.8939C1.344 17.5978 1.76 18.2698 2.208 18.9097C2.656 19.5496 3.28 20.3175 4.08 21.2134C4.88 22.1093 5.712 22.9572 6.576 23.7571C7.44 24.557 8.512 25.3409 9.792 26.1088C11.072 26.8767 12.384 27.5486 13.728 28.1245C15.072 28.7005 16.64 29.1484 18.432 29.4684C20.224 29.7883 22.08 29.9643 24 29.9963C25.92 30.0283 27.776 29.8523 29.568 29.4684C31.36 29.0844 32.944 28.6205 34.32 28.0765C35.696 27.5326 36.992 26.8767 38.208 26.1088C39.424 25.3409 40.496 24.541 41.424 23.7091C42.352 22.8772 43.184 22.0613 43.92 21.2614C44.656 20.4615 45.28 19.6616 45.792 18.8617C46.304 18.0618 46.72 17.4059 47.04 16.8939C47.36 16.382 47.6 15.918 47.76 15.5021L48 14.9742C47.968 14.8462 47.888 14.6702 47.76 14.4462C47.632 14.2222 47.392 13.7743 47.04 13.1024C46.688 12.4305 46.272 11.7586 45.792 11.0866C45.312 10.4147 44.688 9.63081 43.92 8.73493C43.152 7.83904 42.32 7.00714 41.424 6.23923C40.528 5.47133 39.456 4.68742 38.208 3.88752C36.96 3.08762 35.648 2.4157 34.272 1.87177C32.896 1.32784 31.328 0.879892 29.568 0.527935C27.808 0.175979 25.952 0 24 0C22.048 0 20.192 0.175979 18.432 0.527935C16.672 0.879892 15.088 1.32784 13.68 1.87177C12.272 2.4157 10.976 3.08762 9.792 3.88752C8.608 4.68742 7.536 5.47133 6.576 6.23923C5.616 7.00714 4.784 7.83904 4.08 8.73493C3.376 9.63081 2.752 10.4147 2.208 11.0866C1.664 11.7586 1.248 12.4305 0.96 13.1024C0.672 13.7743 0.432 14.2382 0.24 14.4942L0 14.9742ZM15.024 14.9742C15.024 12.5105 15.888 10.3987 17.616 8.63894C19.344 6.87915 21.472 5.99926 24 5.99926C26.528 5.99926 28.656 6.87915 30.384 8.63894C32.112 10.3987 32.992 12.5105 33.024 14.9742C33.056 17.4379 32.176 19.5656 30.384 21.3574C28.592 23.1492 26.464 24.029 24 23.997C21.536 23.965 19.408 23.0852 17.616 21.3574C15.824 19.6296 14.96 17.5018 15.024 14.9742ZM18 14.9742C18 16.638 18.592 18.0618 19.776 19.2456C20.96 20.4295 22.368 21.0054 24 20.9734C25.632 20.9414 27.04 20.3655 28.224 19.2456C29.408 18.1258 30 16.7019 30 14.9742C30 13.2464 29.408 11.8385 28.224 10.7507C27.04 9.66281 25.632 9.07088 24 8.9749C22.368 8.87891 20.96 9.47083 19.776 10.7507L24 14.9742H18Z" fill="#B2B2B2"/>
</svg>
