<svg width="32" height="32" viewBox="0 0 32 32" fill="none" xmlns="http://www.w3.org/2000/svg">
<g clip-path="url(#clip0_110_1204)">
<path fill-rule="evenodd" clip-rule="evenodd" d="M5.75252 0H26.5051C26.9921 0 27.3879 0.398438 27.3879 0.885417C27.3879 1.3724 26.9895 1.77083 26.5051 1.77083H5.75252C5.26554 1.77083 4.86971 1.3724 4.86971 0.885417C4.86711 0.398438 5.26554 0 5.75252 0ZM31.276 11.2422V12.3099C31.2864 12.4115 31.2916 12.513 31.2916 12.6146C31.2916 14.4062 29.6171 15.8594 27.552 15.8594C25.4869 15.8594 23.8124 14.4062 23.8124 12.6146C23.8124 12.5391 23.815 12.4609 23.8202 12.3854H23.6718C23.677 12.4609 23.6796 12.5365 23.6796 12.6146C23.6796 14.4062 22.0051 15.8594 19.94 15.8594C17.8749 15.8594 16.2004 14.4062 16.2004 12.6146C16.2004 12.5391 16.203 12.4609 16.2083 12.3854H16.0598C16.065 12.4609 16.0676 12.5365 16.0676 12.6146C16.0676 14.4062 14.3931 15.8594 12.328 15.8594C10.2629 15.8594 8.58846 14.4062 8.58846 12.6146C8.58846 12.5391 8.59106 12.4609 8.59627 12.3854H8.50252C8.50773 12.4609 8.51033 12.5365 8.51033 12.6146C8.51033 14.4062 6.83586 15.8594 4.77075 15.8594C2.70565 15.8594 1.03117 14.4062 1.03117 12.6146C1.03117 12.526 1.03638 12.4401 1.04419 12.3542V11.2422H31.276ZM4.78117 2.71875H27.6041L30.5129 8.92969H1.76554L4.78117 2.71875ZM1.27856 28.1276H4.43481V18.1536C4.4869 18.1562 4.53898 18.1589 4.59106 18.1589H4.60408H4.66398H4.6744H4.68221H4.72388H4.73169H4.76815V18.1667H4.77075V18.1589C6.19783 18.1589 7.51815 17.7031 8.54679 16.9479L8.55461 16.9531L8.56242 16.9583L8.57023 16.9635L8.57804 16.9688L8.58586 16.974L8.59367 16.9792L8.59627 16.9818L8.60148 16.9844L8.60929 16.9896L8.61711 16.9948L8.62492 17H8.62752L8.65356 17.0182L8.66138 17.0234L8.66398 17.026L8.677 17.0339L8.68481 17.0391L8.69263 17.0443L8.69523 17.0469L8.70044 17.0495L8.70825 17.0547L8.71606 17.0599L8.72388 17.0651L8.72908 17.0807L8.7369 17.0859L8.74211 17.0911L8.74992 17.0964L8.75773 17.1016L8.76554 17.1068L8.77336 17.112L8.78117 17.1172L8.78898 17.1224H8.79158L8.85148 17.1615L8.85929 17.1667L8.86711 17.1719L8.91398 17.2031L8.92179 17.2083L8.97908 17.2422L8.9895 17.2448L8.99731 17.25L9.00513 17.2552L9.01294 17.2604L9.02075 17.2656L9.02856 17.2708L9.03638 17.276L9.04419 17.2812V23.8177H22.9452V17.4297C23.1692 17.3125 23.3879 17.1797 23.5937 17.0365L23.5989 17.0312H23.6015L23.6431 17.0026L23.6458 17L23.6588 16.9922L23.6718 16.9844L23.6926 16.9688H23.6952L23.6978 16.9661L23.7421 16.9349C24.776 17.7031 26.1067 18.1667 27.5468 18.1667V18.1745H27.5494V18.1667H27.5572V28.1328H30.7135C31.2004 28.1328 31.5989 29.0026 31.5989 30.0677C31.5989 31.1328 31.2004 32.0026 30.7135 32.0026H1.27856C0.794189 32.0026 0.395752 31.1328 0.395752 30.0677C0.395752 29 0.794189 28.1276 1.27856 28.1276Z" fill="#8E8E8E"/>
</g>
<defs>
<clipPath id="clip0_110_1204">
<rect width="32" height="32" fill="white"/>
</clipPath>
</defs>
</svg>
