<svg width="29" height="32" viewBox="0 0 29 32" fill="none" xmlns="http://www.w3.org/2000/svg">
<path d="M19 31.6667C17.1211 31.6667 15.2843 31.1095 13.7221 30.0656C12.1598 29.0218 10.9422 27.5381 10.2231 25.8022C9.50411 24.0663 9.31598 22.1561 9.68254 20.3133C10.0491 18.4705 10.9539 16.7778 12.2825 15.4492C13.6111 14.1206 15.3038 13.2158 17.1466 12.8492C18.9895 12.4826 20.8996 12.6708 22.6355 13.3898C24.3714 14.1088 25.8551 15.3265 26.899 16.8887C27.9428 18.451 28.5 20.2877 28.5 22.1667C28.5 24.6862 27.4991 27.1026 25.7175 28.8842C23.9359 30.6658 21.5196 31.6667 19 31.6667ZM8.70833 10.8569C13.5185 10.8569 17.4167 8.4265 17.4167 5.42925C17.4167 2.432 13.5185 0 8.70833 0C3.89817 0 0 2.43042 0 5.42925C0 8.42808 3.89817 10.8569 8.70833 10.8569ZM7.39892 17.1C7.93939 15.8744 8.67044 14.742 9.56492 13.7449C9.27992 13.7623 9.00125 13.7972 8.70833 13.7972C3.89817 13.7972 0 11.3667 0 8.3695V11.761C0 14.4796 3.21733 16.7026 7.39892 17.1ZM6.55342 24.472C6.41008 23.7118 6.33641 22.9402 6.33333 22.1667C6.33333 21.7867 6.35708 21.4114 6.39033 21.0393C2.71067 20.4076 0 18.3287 0 15.8333V19.2264C0 21.7582 2.78983 23.8719 6.55342 24.472ZM8.70833 31.6667C9.27944 31.6662 9.84998 31.6308 10.4168 31.5606C10.0247 31.1925 9.668 30.7886 9.35117 30.3541C8.78999 29.6959 8.29716 28.9824 7.88025 28.2245C3.46433 27.9617 0 25.6674 0 22.8459V26.2374C0 29.2362 3.89817 31.6667 8.70833 31.6667Z" fill="#8E8E8E"/>
</svg>
