<svg width="32" height="32" viewBox="0 0 32 32" fill="none" xmlns="http://www.w3.org/2000/svg">
<path d="M16 3C8.82 3 3 8.82 3 16C3 23.18 8.82 29 16 29C23.18 29 29 23.18 29 16C29 8.82 23.18 3 16 3ZM10.8544 10.1462L17.4169 14.5837C17.8501 14.8957 18.143 15.3657 18.2324 15.8921C18.3217 16.4184 18.2003 16.9587 17.8943 17.3962C17.5883 17.8337 17.1224 18.1331 16.5974 18.2297C16.0724 18.3263 15.5304 18.2124 15.0887 17.9125C14.8947 17.7757 14.7256 17.6065 14.5887 17.4125L10.1512 10.85C10.0829 10.7521 10.0513 10.6334 10.0617 10.5145C10.0722 10.3956 10.1242 10.2842 10.2086 10.1999C10.293 10.1155 10.4044 10.0635 10.5233 10.053C10.6421 10.0425 10.7609 10.0742 10.8588 10.1425L10.8544 10.1462ZM16 27C9.9375 27 5 22.0656 5 16C4.99485 14.5206 5.29067 13.0555 5.86947 11.694C6.44828 10.3324 7.29797 9.10286 8.36687 8.08C8.45 7.99713 8.5488 7.93163 8.6575 7.88733C8.7662 7.84303 8.88263 7.82082 9.00001 7.82198C9.11738 7.82314 9.23335 7.84765 9.34116 7.89409C9.44896 7.94053 9.54644 8.00797 9.62791 8.09247C9.70938 8.17697 9.77322 8.27685 9.8157 8.38627C9.85817 8.4957 9.87844 8.61249 9.87532 8.72983C9.8722 8.84717 9.84575 8.96271 9.79752 9.06972C9.74928 9.17674 9.68023 9.27307 9.59437 9.35312C8.69741 10.2116 7.98439 11.2436 7.49864 12.3862C7.01289 13.5289 6.76456 14.7584 6.76875 16C6.76875 21.09 10.91 25.2313 16 25.2313C21.09 25.2313 25.2313 21.09 25.2313 16C25.2313 11.2081 21.5612 7.2575 16.8844 6.8125V10.25C16.8844 10.4846 16.7912 10.7095 16.6253 10.8753C16.4595 11.0412 16.2346 11.1344 16 11.1344C15.7654 11.1344 15.5405 11.0412 15.3747 10.8753C15.2088 10.7095 15.1156 10.4846 15.1156 10.25V5.88438C15.1156 5.64982 15.2088 5.42488 15.3747 5.25903C15.5405 5.09317 15.7654 5 16 5C22.0656 5 27 9.9375 27 16C27 22.0625 22.0656 27 16 27Z" fill="#8E8E8E"/>
</svg>
