<svg width="30" height="30" viewBox="0 0 30 30" fill="none" xmlns="http://www.w3.org/2000/svg">
<g clip-path="url(#clip0_110_1828)">
<path d="M25 2.5C25.69 2.5 26.25 3.06 26.25 3.75V8.44625L15.0013 19.6962L14.9937 24.9937L20.3012 25.0012L26.25 19.0525V26.25C26.25 26.94 25.69 27.5 25 27.5H5C4.31 27.5 3.75 26.94 3.75 26.25V3.75C3.75 3.06 4.31 2.5 5 2.5H25ZM27.2225 11.01L28.99 12.7775L19.2675 22.5L17.4975 22.4975L17.5 20.7325L27.2225 11.01ZM15 15H8.75V17.5H15V15ZM18.75 10H8.75V12.5H18.75V10Z" fill="#8E8E8E"/>
</g>
<defs>
<clipPath id="clip0_110_1828">
<rect width="30" height="30" fill="white"/>
</clipPath>
</defs>
</svg>
